<svg width="358" height="24" viewBox="0 0 358 24" fill="none" xmlns="http://www.w3.org/2000/svg">
<rect width="357.5" height="24" fill="#0061A8"/>
<path d="M180.303 13.045C180.889 12.4592 180.889 11.5094 180.303 10.9237L170.756 1.3786C170.17 0.792862 169.221 0.792948 168.635 1.37879C168.049 1.96463 168.049 2.91437 168.635 3.50011L177.121 11.9846L168.637 20.4707C168.051 21.0565 168.051 22.0063 168.637 22.592C169.223 23.1777 170.172 23.1776 170.758 22.5918L180.303 13.045ZM6.89407 13.5L179.243 13.4844L179.242 10.4844L6.8938 10.5L6.89407 13.5Z" fill="#2978B5"/>
<path d="M178.182 10.9393C177.596 11.5251 177.596 12.4749 178.182 13.0607L187.728 22.6066C188.314 23.1924 189.263 23.1924 189.849 22.6066C190.435 22.0208 190.435 21.0711 189.849 20.4853L181.364 12L189.849 3.51472C190.435 2.92893 190.435 1.97919 189.849 1.3934C189.263 0.807611 188.314 0.807611 187.728 1.3934L178.182 10.9393ZM351.591 10.5L179.242 10.5V13.5L351.591 13.5V10.5Z" fill="#2978B5"/>
</svg>
