<?xml version="1.0" standalone="no"?>
<!DOCTYPE svg PUBLIC "-//W3C//DTD SVG 20010904//EN"
 "http://www.w3.org/TR/2001/REC-SVG-20010904/DTD/svg10.dtd">
<svg version="1.0" xmlns="http://www.w3.org/2000/svg"
 width="85.000000pt" height="80.000000pt" viewBox="0 0 85.000000 80.000000"
 preserveAspectRatio="xMidYMid meet">

<g transform="translate(0.000000,80.000000) scale(0.100000,-0.100000)"
fill="#000000" stroke="none">
<path d="M307 481 c-32 -33 -57 -62 -57 -66 0 -13 113 -125 126 -125 29 0 24
24 -12 61 l-38 39 122 0 c103 0 124 3 129 16 10 27 -17 34 -137 34 l-114 0 38
39 c36 37 41 61 12 61 -7 0 -38 -27 -69 -59z m9 -37 c-3 -9 -6 -20 -6 -25 0
-5 -7 -9 -15 -9 -18 0 -18 5 -5 31 13 23 35 26 26 3z m248 -29 c4 -12 -5 -15
-48 -15 -29 0 -75 3 -102 7 l-49 8 50 6 c98 12 143 10 149 -6z"/>
</g>
</svg>
